<svg id="fi_2340047" height="512" viewBox="0 0 60 60" width="512" xmlns="http://www.w3.org/2000/svg"><path d="m58.89 27.52a1.686 1.686 0 0 0 -1.06-1.4l-4.68-1.87a23.5 23.5 0 0 0 -2.72-6.55l1.99-4.63a1.686 1.686 0 0 0 -.24-1.75c-.52-.63-1.09-1.24-1.67-1.83s-1.2-1.15-1.83-1.67a1.686 1.686 0 0 0 -1.75-.24l-4.63 1.99a23.5 23.5 0 0 0 -6.55-2.72l-1.87-4.68a1.686 1.686 0 0 0 -1.4-1.06c-.82-.08-1.65-.11-2.48-.11s-1.66.03-2.48.11a1.686 1.686 0 0 0 -1.4 1.06l-1.87 4.68a23.5 23.5 0 0 0 -6.55 2.72l-4.63-1.99a1.686 1.686 0 0 0 -1.75.24c-.63.52-1.24 1.09-1.83 1.67s-1.15 1.2-1.67 1.83a1.686 1.686 0 0 0 -.24 1.75l1.99 4.63a23.5 23.5 0 0 0 -2.72 6.55l-4.68 1.87a1.686 1.686 0 0 0 -1.06 1.4c-.08.82-.11 1.65-.11 2.48s.03 1.66.11 2.48a1.686 1.686 0 0 0 1.06 1.4l4.68 1.87a23.5 23.5 0 0 0 2.72 6.55l-1.99 4.63a1.686 1.686 0 0 0 .24 1.75c.52.63 1.09 1.24 1.67 1.83s1.2 1.15 1.83 1.67a1.686 1.686 0 0 0 1.75.24l4.63-1.99a23.5 23.5 0 0 0 6.55 2.72l1.87 4.68a1.686 1.686 0 0 0 1.4 1.06c.82.08 1.65.11 2.48.11s1.66-.03 2.48-.11a1.686 1.686 0 0 0 1.4-1.06l1.87-4.68a23.5 23.5 0 0 0 6.55-2.72l4.63 1.99a1.686 1.686 0 0 0 1.75-.24c.63-.52 1.24-1.09 1.83-1.67s1.15-1.2 1.67-1.83a1.686 1.686 0 0 0 .24-1.75l-1.99-4.63a23.5 23.5 0 0 0 2.72-6.55l4.68-1.87a1.686 1.686 0 0 0 1.06-1.4c.08-.82.11-1.65.11-2.48s-.03-1.66-.11-2.48zm-28.89 20.48a18 18 0 1 1 18-18 18.027 18.027 0 0 1 -18 18z" fill="#cfd2da"></path><circle cx="30" cy="30" fill="#fab344" r="15"></circle><g fill="#373737"><path d="m30 46a16 16 0 1 0 -16-16 16.019 16.019 0 0 0 16 16zm0-30a14 14 0 1 1 -14 14 14.015 14.015 0 0 1 14-14z"></path><path d="m58.2 25.193-4.2-1.681a24.734 24.734 0 0 0 -2.443-5.884l1.787-4.169a2.672 2.672 0 0 0 -.389-2.776c-.533-.64-1.118-1.278-1.736-1.895s-1.255-1.2-1.9-1.74a2.669 2.669 0 0 0 -2.775-.386l-4.172 1.786a24.734 24.734 0 0 0 -5.884-2.443l-1.681-4.205a2.677 2.677 0 0 0 -2.239-1.689 29.8 29.8 0 0 0 -5.139 0 2.676 2.676 0 0 0 -2.236 1.689l-1.681 4.2a24.734 24.734 0 0 0 -5.884 2.443l-4.169-1.782a2.676 2.676 0 0 0 -2.777.388c-.641.536-1.282 1.121-1.894 1.737s-1.2 1.257-1.738 1.9a2.669 2.669 0 0 0 -.388 2.776l1.786 4.169a24.734 24.734 0 0 0 -2.443 5.884l-4.205 1.678a2.677 2.677 0 0 0 -1.69 2.239c-.073.825-.11 1.689-.11 2.568s.037 1.743.111 2.571a2.676 2.676 0 0 0 1.689 2.236l4.2 1.681a24.734 24.734 0 0 0 2.443 5.884l-1.782 4.169a2.676 2.676 0 0 0 .388 2.777c.536.641 1.121 1.279 1.737 1.894s1.257 1.2 1.9 1.738a2.669 2.669 0 0 0 2.776.388l4.169-1.786a24.734 24.734 0 0 0 5.881 2.448l1.681 4.2a2.677 2.677 0 0 0 2.239 1.69c.825.074 1.689.111 2.568.111s1.743-.037 2.571-.111a2.676 2.676 0 0 0 2.236-1.69l1.681-4.2a24.734 24.734 0 0 0 5.884-2.443l4.169 1.787a2.68 2.68 0 0 0 2.776-.389c.64-.533 1.278-1.118 1.9-1.736s1.2-1.255 1.74-1.9a2.672 2.672 0 0 0 .386-2.775l-1.786-4.169a24.734 24.734 0 0 0 2.443-5.887l4.2-1.681a2.677 2.677 0 0 0 1.69-2.239c.073-.825.11-1.689.11-2.568s-.037-1.743-.111-2.571a2.676 2.676 0 0 0 -1.689-2.236zm-.3 7.195a.687.687 0 0 1 -.44.561l-4.673 1.869a1 1 0 0 0 -.6.688 22.728 22.728 0 0 1 -2.607 6.278 1 1 0 0 0 -.063.91l1.983 4.634a.689.689 0 0 1 -.083.707c-.5.6-1.041 1.189-1.618 1.765s-1.169 1.12-1.762 1.615a.689.689 0 0 1 -.708.085l-4.634-1.986a.991.991 0 0 0 -.91.063 22.728 22.728 0 0 1 -6.278 2.607 1 1 0 0 0 -.688.6l-1.869 4.672a.687.687 0 0 1 -.558.441 27.836 27.836 0 0 1 -4.779 0 .688.688 0 0 1 -.561-.44l-1.869-4.673a1 1 0 0 0 -.688-.6 22.728 22.728 0 0 1 -6.278-2.607.994.994 0 0 0 -.517-.144.978.978 0 0 0 -.393.081l-4.635 1.986a.692.692 0 0 1 -.708-.084c-.593-.495-1.186-1.039-1.764-1.617s-1.119-1.167-1.615-1.761a.693.693 0 0 1 -.085-.709l1.986-4.634a1 1 0 0 0 -.063-.91 22.728 22.728 0 0 1 -2.607-6.278 1 1 0 0 0 -.6-.688l-4.671-1.87a.687.687 0 0 1 -.441-.558c-.069-.768-.104-1.572-.104-2.391s.035-1.623.1-2.388a.688.688 0 0 1 .44-.561l4.673-1.869a1 1 0 0 0 .6-.688 22.728 22.728 0 0 1 2.607-6.278 1 1 0 0 0 .063-.91l-1.983-4.634a.689.689 0 0 1 .084-.708c.495-.593 1.039-1.186 1.617-1.764s1.167-1.119 1.761-1.615a.7.7 0 0 1 .709-.085l4.634 1.986a1 1 0 0 0 .91-.063 22.728 22.728 0 0 1 6.278-2.607 1 1 0 0 0 .688-.6l1.869-4.672a.687.687 0 0 1 .558-.441 27.836 27.836 0 0 1 4.779 0 .688.688 0 0 1 .561.44l1.869 4.673a1 1 0 0 0 .688.6 22.728 22.728 0 0 1 6.278 2.607 1 1 0 0 0 .91.063l4.635-1.986a.687.687 0 0 1 .707.083c.6.5 1.189 1.041 1.765 1.618s1.12 1.169 1.615 1.762a.691.691 0 0 1 .085.708l-1.986 4.634a1 1 0 0 0 .063.91 22.728 22.728 0 0 1 2.607 6.278 1 1 0 0 0 .6.688l4.672 1.869a.687.687 0 0 1 .441.558c.069.768.1 1.572.1 2.391s-.032 1.624-.097 2.389z"></path><path d="m30 10a20.038 20.038 0 0 0 -19.3 14.737 1 1 0 0 0 1.93.526 18.015 18.015 0 1 1 -.63 4.737 1 1 0 0 0 -2 0 20 20 0 1 0 20-20z"></path><path d="m34 31a1 1 0 1 1 -.867 1.5 1 1 0 0 0 -1.731 1 3 3 0 1 0 2.598-4.5 1 1 0 1 1 .867-1.5 1 1 0 0 0 1.731-1 3 3 0 1 0 -2.598 4.5z"></path><path d="m26 35a3 3 0 0 0 3-3v-5a1 1 0 0 0 0-2h-4a1 1 0 0 0 0 2h2v5a1 1 0 0 1 -2 0v-1a1 1 0 0 0 -2 0v1a3 3 0 0 0 3 3z"></path><path d="m21.764 34a1 1 0 0 0 -1-1v-.528a3.015 3.015 0 0 0 -.317-1.341l-.342-.683a1.013 1.013 0 0 1 0-.895l.342-.684a3.015 3.015 0 0 0 .317-1.341v-.528a1 1 0 0 0 0-2 2 2 0 0 0 -2 2v.528a.99.99 0 0 1 -.106.447l-.342.684a3.02 3.02 0 0 0 0 2.683l.342.683a.99.99 0 0 1 .106.447v.528a2 2 0 0 0 2 2 1 1 0 0 0 1-1z"></path><path d="m38.236 34a1 1 0 0 0 1 1 2 2 0 0 0 2-2v-.528a.99.99 0 0 1 .106-.447l.342-.684a3.02 3.02 0 0 0 0-2.683l-.342-.683a.99.99 0 0 1 -.106-.447v-.528a2 2 0 0 0 -2-2 1 1 0 1 0 0 2v.528a3.015 3.015 0 0 0 .317 1.341l.342.683a1.013 1.013 0 0 1 0 .895l-.342.684a3.015 3.015 0 0 0 -.317 1.341v.528a1 1 0 0 0 -1 1z"></path></g></svg>