<svg id="fi_2351891" height="512" viewBox="0 0 60 60" width="512" xmlns="http://www.w3.org/2000/svg"><path d="m58.89 27.52a1.686 1.686 0 0 0 -1.06-1.4l-4.68-1.87a23.5 23.5 0 0 0 -2.72-6.55l1.99-4.63a1.686 1.686 0 0 0 -.24-1.75c-.52-.63-1.09-1.24-1.67-1.83s-1.2-1.15-1.83-1.67a1.686 1.686 0 0 0 -1.75-.24l-4.63 1.99a23.5 23.5 0 0 0 -6.55-2.72l-1.87-4.68a1.686 1.686 0 0 0 -1.4-1.06c-.82-.08-1.65-.11-2.48-.11s-1.66.03-2.48.11a1.686 1.686 0 0 0 -1.4 1.06l-1.87 4.68a23.5 23.5 0 0 0 -6.55 2.72l-4.63-1.99a1.686 1.686 0 0 0 -1.75.24c-.63.52-1.24 1.09-1.83 1.67s-1.15 1.2-1.67 1.83a1.686 1.686 0 0 0 -.24 1.75l1.99 4.63a23.5 23.5 0 0 0 -2.72 6.55l-4.68 1.87a1.686 1.686 0 0 0 -1.06 1.4c-.08.82-.11 1.65-.11 2.48s.03 1.66.11 2.48a1.686 1.686 0 0 0 1.06 1.4l4.68 1.87a23.5 23.5 0 0 0 2.72 6.55l-1.99 4.63a1.686 1.686 0 0 0 .24 1.75c.52.63 1.09 1.24 1.67 1.83s1.2 1.15 1.83 1.67a1.686 1.686 0 0 0 1.75.24l4.63-1.99a23.5 23.5 0 0 0 6.55 2.72l1.87 4.68a1.686 1.686 0 0 0 1.4 1.06c.82.08 1.65.11 2.48.11s1.66-.03 2.48-.11a1.686 1.686 0 0 0 1.4-1.06l1.87-4.68a23.5 23.5 0 0 0 6.55-2.72l4.63 1.99a1.686 1.686 0 0 0 1.75-.24c.63-.52 1.24-1.09 1.83-1.67s1.15-1.2 1.67-1.83a1.686 1.686 0 0 0 .24-1.75l-1.99-4.63a23.5 23.5 0 0 0 2.72-6.55l4.68-1.87a1.686 1.686 0 0 0 1.06-1.4c.08-.82.11-1.65.11-2.48s-.03-1.66-.11-2.48zm-28.89 20.48a18 18 0 1 1 18-18 18.027 18.027 0 0 1 -18 18z" fill="#ccd0da"></path><circle cx="30" cy="30" fill="#faa116" r="15"></circle><path d="m30 10a20 20 0 1 0 20 20 20.02 20.02 0 0 0 -20-20zm0 38a18 18 0 1 1 18-18 18.027 18.027 0 0 1 -18 18z" fill="#b9bfcc"></path><path d="m34 29a1 1 0 1 1 .867-1.5 1 1 0 0 0 1.731-1 3 3 0 1 0 -2.598 4.5 1 1 0 1 1 -.867 1.5 1 1 0 0 0 -1.731 1 3 3 0 1 0 2.598-4.5z" fill="#fff"></path><path d="m29 25h-4a1 1 0 0 0 0 2h2v5a1 1 0 0 1 -2 0v-1a1 1 0 0 0 -2 0v1a3 3 0 0 0 6 0v-5a1 1 0 0 0 0-2z" fill="#fff"></path><g fill="#dd7800"><path d="m20.764 35a2 2 0 0 1 -2-2v-.528a.99.99 0 0 0 -.106-.447l-.342-.683a3.02 3.02 0 0 1 0-2.683l.342-.684a.99.99 0 0 0 .106-.447v-.528a2 2 0 0 1 2-2 1 1 0 0 1 0 2v.528a3.015 3.015 0 0 1 -.317 1.341l-.342.684a1.013 1.013 0 0 0 0 .895l.342.683a3.015 3.015 0 0 1 .317 1.341v.528a1 1 0 0 1 0 2z"></path><path d="m39.236 35a1 1 0 1 1 0-2v-.528a3.015 3.015 0 0 1 .317-1.341l.342-.684a1.013 1.013 0 0 0 0-.895l-.342-.683a3.015 3.015 0 0 1 -.317-1.341v-.528a1 1 0 1 1 0-2 2 2 0 0 1 2 2v.528a.99.99 0 0 0 .106.447l.342.683a3.02 3.02 0 0 1 0 2.683l-.342.684a.99.99 0 0 0 -.106.447v.528a2 2 0 0 1 -2 2z"></path></g></svg>